<svg width="512" height="512" xmlns="http://www.w3.org/2000/svg" transform="rotate(8.1301 123.75 287.375)">
 <defs>
  <linearGradient id="imagebot_34" y2="1">
   <stop offset="0" stop-color="#e92d28"/>
   <stop offset="1" stop-color="#6d0018"/>
  </linearGradient>
  <linearGradient id="imagebot_35" y2="1">
   <stop offset="0" stop-color="#e92d28"/>
   <stop offset="1" stop-color="#6d0018"/>
  </linearGradient>
  <linearGradient id="imagebot_36" y2="1">
   <stop offset="0" stop-color="#e92d28"/>
   <stop offset="1" stop-color="#6d0018"/>
  </linearGradient>
  <linearGradient id="imagebot_37" y2="1">
   <stop offset="0" stop-color="#e92d28"/>
   <stop offset="1" stop-color="#6d0018"/>
  </linearGradient>
  <linearGradient id="imagebot_38" y2="1">
   <stop offset="0" stop-color="#e92d28"/>
   <stop offset="1" stop-color="#6d0018"/>
  </linearGradient>
  <linearGradient id="imagebot_39" y2="1">
   <stop offset="0" stop-color="#e92d28"/>
   <stop offset="1" stop-color="#6d0018"/>
  </linearGradient>
 </defs>
 <g id="imagebot_2">
  <path id="imagebot_32" d="M 2.99544 4.00995 L 507.598 4.00995 L 507.598 507.277 L 2.99544 507.277 L 2.99544 4.00995 Z" stroke-linecap="null" stroke-linejoin="null" stroke-dasharray="null" stroke-width="6.25" stroke="#ffffff" fill-opacity="null" fill="#ffffff">tらんしt</path>
  <title>imagebot_2</title>
  <text font-weight="bold" xml:space="preserve" text-anchor="middle" font-family="Sans-serif" font-size="76" id="imagebot_30" y="117.25" x="251.625" fill-opacity="null" stroke-opacity="null" stroke-linecap="null" stroke-linejoin="null" stroke-dasharray="null" stroke-width="0" stroke="#000000" fill="#000000">KEISEI</text>
  <text xml:space="preserve" text-anchor="middle" font-family="Sans-serif" font-size="76" id="imagebot_31" y="457.24999" x="255.375" fill-opacity="null" stroke-opacity="null" stroke-linecap="null" stroke-linejoin="null" stroke-dasharray="null" stroke-width="0" stroke="#000000" fill="#000000">transitbus</text>
  <g transform="translate(1.25 0)" id="imagebot_42">
   <path fill-rule="evenodd" fill="#000000" d="M 88.1027 328.104 L 61.0455 313.854 L 61.3578 296.167 L 64.6764 293.082 L 64.3261 197.312 L 64.325 197.312 C 64.325 193.994 64.8727 190.87 65.9659 188.098 C 66.9408 185.17 68.5426 182.554 70.9242 180.407 C 73.1496 178.299 72.3677 177.635 80.1772 175.41 C 88.1027 173.028 101.065 170.178 117.853 166.547 C 134.562 162.76 161.424 156.748 179.616 153.468 C 197.655 150.15 210.069 148.471 225.881 146.948 C 241.577 145.386 257.075 144.488 273.433 144.254 C 289.636 143.981 308.766 143.942 322.979 145.035 C 337.191 145.933 349.918 147.456 357.999 150.032 C 365.846 152.492 366.55 155.459 370.219 160.418 C 373.812 165.337 377.599 164.712 379.473 179.626 C 381.229 194.736 380.878 225.149 381.113 249.629 C 381.346 273.874 381.191 298.392 380.799 324.238 L 384.744 330.406 L 384.081 357.307 L 333.209 359.221 C 331.414 363.985 329.265 367.888 326.611 370.777 C 323.917 373.666 321.34 375.893 317.357 376.555 C 313.259 377.064 306.35 376.945 302.483 374.251 C 298.539 371.48 295.728 366.911 293.894 360.392 L 219.245 364.999 L 188.519 357.307 C 185.356 362.696 182.311 365.897 178.954 366.911 C 175.596 367.887 171.34 366.053 168.724 363.086 C 165.99 359.961 164 355.2 162.751 348.483 L 103.955 331.521 C 102.353 335.387 100.635 337.651 98.3718 338.471 C 96.1464 339.213 92.3984 337.846 90.7586 336.166 C 88.9627 334.332 88.2209 331.796 88.1038 328.087 L 88.1027 328.104 Z" id="imagebot_28">KEISEI</path>
   <path transform="matrix(1.0845 0 0 1.0845 18.75 23.75)" fill-rule="evenodd" fill="url(#imagebot_38)" d="M 196.46 115.36 C 177.632 118.06 158.659 121.156 138.716 124.792 C 118.628 128.428 92.167 133.828 77.659 137.104 C 63.259 140.236 58.292 140.668 53.035 143.692 C 47.671 146.644 45.439 150.316 45.943 154.852 C 67.075 152.08 88.243 149.524 110.419 146.896 C 132.595 144.232 154.556 141.748 177.703 139.3 C 178.891 133.972 181.123 129.256 184.255 125.296 C 187.423 121.192 191.347 118.06 196.46 115.36 Z" id="imagebot_27">KEISEI</path>
   <path transform="matrix(1.0845 0 0 1.0845 18.75 23.75)" fill-rule="evenodd" fill="url(#imagebot_37)" d="M 181.24 140.56 C 181.564 138.076 182.679 135.304 184.588 132.388 C 186.389 129.22 188.981 125.512 192.508 122.812 C 196 120.148 198.7 118.24 205.612 116.8 C 212.488 115.396 222.424 114.604 233.62 114.28 C 244.78 113.776 260.583 114.1 271.995 114.28 C 283.335 114.388 293.163 113.776 300.94 115.36 C 308.499 116.872 312.963 119.176 317.391 123.532 C 321.711 127.888 324.807 133.648 326.823 141.244 C 304.288 141.784 281.536 142.072 257.055 141.964 C 232.503 141.856 207.736 141.388 181.24 140.56 Z" id="imagebot_26">KEISEI</path>
   <path transform="matrix(1.0845 0 0 1.0845 18.75 23.75)" fill-rule="evenodd" fill="#ffffff" d="M 181.85 145.17 L 182.139 225.306 L 330.169 224.946 L 329.271 146.574 L 181.851 145.17 L 181.85 145.17 Z" id="imagebot_25">KEISEI</path>
   <path transform="matrix(1.0845 0 0 1.0845 18.75 23.75)" fill-rule="evenodd" fill="#ffffff" d="M 204.56 244.09 C 208.931 244.09 212.48 248.219 212.48 253.307 S 208.931 262.522 204.56 262.522 C 200.188 262.522 196.64 258.395 196.64 253.307 S 200.188 244.09 204.56 244.09" id="imagebot_24">KEISEI</path>
   <path transform="matrix(1.0845 0 0 1.0845 18.75 23.75)" fill-rule="evenodd" fill="#ffffff" d="M 222.56 244.45 C 226.912 244.45 230.444 248.579 230.444 253.665 C 230.444 258.753 226.911 262.882 222.56 262.882 S 214.675 258.753 214.675 253.665 C 214.675 248.579 218.208 244.45 222.56 244.45" id="imagebot_23">KEISEI</path>
   <path transform="matrix(1.0845 0 0 1.0845 18.75 23.75)" fill-rule="evenodd" fill="#ffffff" d="M 304.88 243.1 C 308.913 243.1 312.189 246.922 312.189 251.633 C 312.189 256.342 308.914 260.164 304.88 260.164 S 297.571 256.342 297.571 251.633 C 297.571 246.922 300.847 243.1 304.88 243.1" id="imagebot_22">KEISEI</path>
   <path transform="matrix(1.0845 0 0 1.0845 18.75 23.75)" fill-rule="evenodd" fill="#ffffff" d="M 321.08 243.1 C 325.115 243.1 328.389 246.922 328.389 251.633 C 328.389 256.342 325.116 260.164 321.08 260.164 C 317.047 260.164 313.773 256.342 313.773 251.633 C 313.773 246.922 317.047 243.1 321.08 243.1" id="imagebot_21">KEISEI</path>
   <path transform="matrix(1.0845 0 0 1.0845 18.75 23.75)" fill-rule="evenodd" fill="url(#imagebot_36)" d="M 181.85 229.19 L 182.139 240.531 L 330.169 240.494 L 329.271 229.406 L 181.851 229.19 L 181.85 229.19 Z" id="imagebot_20">KEISEI</path>
   <path transform="matrix(1.0845 0 0 1.0845 18.75 23.75)" fill-rule="evenodd" fill="url(#imagebot_35)" d="M 181.85 263.97 L 182.139 284.525 L 330.169 284.418 L 329.271 264.33 L 181.851 263.97 L 181.85 263.97 Z" id="imagebot_19">KEISEI</path>
   <path transform="matrix(1.0845 0 0 1.0845 18.75 23.75)" fill-rule="evenodd" fill="#ffffff" d="M 126.7 148.7 L 126.7 203.312 L 151.972 205.076 L 151.972 146.576 L 126.7 148.7 Z" id="imagebot_18">KEISEI</path>
   <path transform="matrix(1.0845 0 0 1.0845 18.75 23.75)" fill-rule="evenodd" fill="#ffffff" d="M 98.401 152.26 L 98.401 201.544 L 122.449 202.588 L 122.449 149.776 L 98.401 152.26 Z" id="imagebot_17">KEISEI</path>
   <path transform="matrix(1.0845 0 0 1.0845 18.75 23.75)" fill-rule="evenodd" fill="#ffffff" d="M 71.725 156 L 72.301 200.172 L 92.28 200.46 L 92.748 153.48 L 71.725 156 Z" id="imagebot_16">KEISEI</path>
   <path transform="matrix(1.0845 0 0 1.0845 18.75 23.75)" fill-rule="evenodd" fill="#ffffff" d="M 45.661 158.74 L 45.661 199.168 L 65.785 199.42 L 65.785 157.192 L 45.661 158.74 Z" id="imagebot_15">KEISEI</path>
   <path transform="matrix(1.0845 0 0 1.0845 18.75 23.75)" fill-rule="evenodd" fill="url(#imagebot_39)" d="M 46.596 203.67 L 152.616 209.358 L 152.904 229.914 L 46.594 219.978 L 46.594 203.67 L 46.596 203.67 Z" id="imagebot_14">KEISEI</path>
   <path fill-rule="evenodd" fill="url(#imagebot_34)" d="M 69.2834 268.088 L 69.2834 314.234 L 85.1355 322.708 L 85.1344 322.708 C 84.1193 309.669 84.1193 300.024 85.1344 293.466 C 86.1506 286.944 88.7263 285.072 91.0688 283.47 C 93.2562 281.557 95.9892 280.424 98.3697 283.081 C 100.596 285.814 103.796 292.177 104.968 299.635 C 106.061 307.015 106.061 315.915 104.968 326.925 L 162.75 344.612 C 160.836 332.937 160.562 323.607 161.775 316.151 C 162.945 308.615 166.966 302.368 170.051 299.987 C 173.097 297.645 177.392 299.558 179.928 301.938 C 182.31 304.165 184.107 307.952 184.887 313.457 L 184.887 280.401 C 146.354 276.291 107.82 272.192 69.2899 268.092 L 69.2834 268.088 Z" id="imagebot_13">KEISEI</path>
   <path transform="matrix(1.0845 0 0 1.0845 18.75 23.75)" fill-rule="evenodd" fill="#ffffff" d="M 157.15 145.85 L 177.274 144.086 L 177.274 307.566 L 157.474 301.554 L 157.15 145.854 L 157.15 145.85 Z" id="imagebot_12">KEISEI</path>
   <path transform="matrix(1.0845 0 0 1.0845 18.75 23.75)" fill-rule="evenodd" fill="#000000" d="M 184.08 148.95 L 245.964 148.95 C 238.8 150.498 234.12 153.126 231.636 156.69 C 229.224 160.254 235.163 167.922 231.132 170.406 C 226.884 172.782 210 167.922 206.58 170.982 C 203.232 173.97 214.32 183.114 210.684 188.262 C 206.832 193.302 198.157 197.622 184.08 201.366 L 184.08 148.95 Z" id="imagebot_11">KEISEI</path>
   <path transform="matrix(1.0845 0 0 1.0845 18.75 23.75)" fill-rule="evenodd" fill="#000000" d="M 252.08 119.18 C 258.885 119.792 278.865 118.1 288.404 119.792 C 297.656 121.448 309.681 128.288 307.808 129.332 C 305.72 130.268 282.32 125.408 276.632 125.732 C 271.017 125.984 280.952 129.944 274.075 131.096 C 266.911 132.212 240.632 133.436 234.692 132.284 C 228.859 130.916 239.444 125.624 238.796 123.356 C 237.933 120.98 228.5 119.9 230.083 118.604 C 231.739 117.2 244.735 115.508 248.517 115.616 C 252.045 115.652 245.457 118.461 252.08 119.18 Z" id="imagebot_10">KEISEI</path>
   <path transform="matrix(1.0845 0 0 1.0845 18.75 23.75)" fill-rule="evenodd" fill="#000000" d="M 89.977 136.46 C 100.128 133.796 123.241 129.8 137.533 127.532 C 151.718 125.156 168.852 121.952 174.361 122.78 C 179.545 123.608 174.973 130.484 169.249 132.284 C 163.382 133.94 146.533 131.276 140.089 132.896 C 133.718 134.444 137.929 140.384 130.909 141.824 C 123.638 143.12 104.557 140.924 97.141 141.212 C 89.76 141.5 90.193 143.228 86.916 143.624 C 83.496 143.984 76.692 144.056 77.196 143.012 C 77.701 141.823 79.825 138.943 89.977 136.46 L 89.977 136.46 Z" id="imagebot_9">KEISEI</path>
   <path transform="matrix(1.0845 0 0 1.0845 18.75 23.75)" fill-rule="evenodd" fill="#000000" d="M 370.31 211.91 L 386.257 211.91 L 386.257 343.46 L 370.307 343.46 L 370.307 211.91 L 370.31 211.91 Z" id="imagebot_8">KEISEI</path>
   <path transform="matrix(1.0845 0 0 1.0845 18.75 23.75)" fill-rule="evenodd" fill="#ffffff" d="M 373.12 215.66 L 383.452 215.66 L 383.452 338.78 L 373.122 338.78 L 373.122 215.66 L 373.12 215.66 Z" id="imagebot_7">KEISEI</path>
   <path transform="matrix(1.0845 0 0 1.0845 18.75 23.75)" fill-rule="evenodd" fill="#000000" d="M 378.32 153.61 C 396.722 153.61 411.656 168.545 411.656 186.946 S 396.722 220.282 378.32 220.282 C 359.92 220.282 344.984 205.347 344.984 186.946 S 359.92 153.61 378.32 153.61" id="imagebot_6">KEISEI</path>
   <path transform="matrix(1.0845 0 0 1.0845 18.75 23.75)" fill-rule="evenodd" fill="#ffffff" d="M 378.2 157.62 C 394.456 157.62 407.647 170.813 407.647 187.068 S 394.456 216.516 378.2 216.516 S 348.751 203.324 348.751 187.068 S 361.944 157.62 378.2 157.62" id="imagebot_5">KEISEI</path>
   <path transform="rotate(11.6672 123.178 280.798) matrix(1 0 0 1 -11.6179 -9.03035)" id="imagebot_40" d="M 164.423 284.75 C 88.5864 296.84 91.6199 292.004 91.3165 290.07 L 178.276 294.906" stroke-opacity="null" stroke-linecap="null" stroke-linejoin="null" stroke-dasharray="null" stroke-width="null" stroke="null" fill="#ffff00">KEISEI</path>
  </g>
 </g>
 <metadata>image/svg+xmlOpenclipartHotel Icon Near Bus Stop2010-04-23T19:42:14Hotel Icons. Originally done for a request, this set has been re-mixed to simple black and white versions.https://openclipart.org/detail/50377/hotel-icon-near-bus-stop-by-gerald_gGerald_Gbushoteliconrequest+completedservicessource+wikistop</metadata>
</svg>