<svg width="968" height="1299" xmlns="http://www.w3.org/2000/svg">
 <defs>
  <linearGradient y2="1" id="imagebot_12">
   <stop stop-color="#e92d28" offset="0"/>
   <stop stop-color="#6d0018" offset="1"/>
  </linearGradient>
  <linearGradient y2="1" id="imagebot_42">
   <stop stop-color="#e92d28" offset="0"/>
   <stop stop-color="#6d0018" offset="1"/>
  </linearGradient>
  <linearGradient y2="1" id="imagebot_44">
   <stop stop-color="#e92d28" offset="0"/>
   <stop stop-color="#6d0018" offset="1"/>
  </linearGradient>
  <linearGradient y2="1" id="imagebot_51">
   <stop stop-color="#e92d28" offset="0"/>
   <stop stop-color="#6d0018" offset="1"/>
  </linearGradient>
  <linearGradient y2="1" id="imagebot_53">
   <stop stop-color="#e92d28" offset="0"/>
   <stop stop-color="#6d0018" offset="1"/>
  </linearGradient>
  <linearGradient y2="1" id="imagebot_14">
   <stop stop-color="#e92d28" offset="0"/>
   <stop stop-color="#6d0018" offset="1"/>
  </linearGradient>
 </defs>
 <g id="imagebot_1">
  <rect fill="#ffffff" stroke="null" stroke-width="0" stroke-dasharray="null" stroke-linejoin="null" stroke-linecap="null" stroke-opacity="null" x="0" y="0" width="968.08951" height="1299.43425" id="imagebot_58"/>
  <title/>
  <text fill="#000000" stroke="null" stroke-width="0" stroke-dasharray="null" stroke-linejoin="null" stroke-linecap="null" stroke-opacity="null" x="581.5" y="166.50001" id="imagebot_57" font-size="24" font-family="Fantasy" text-anchor="middle" xml:space="preserve" transform="translate(3.8147 0) matrix(1.62429 0 0 1.62429 -562.885 566.938)">KEISEI</text>
  <text fill="#000000" stroke="null" stroke-width="0" stroke-dasharray="null" stroke-linejoin="null" stroke-linecap="null" stroke-opacity="null" x="499.3125" y="595.56251" id="imagebot_56" font-size="24" font-family="Fantasy" text-anchor="middle" xml:space="preserve" transform="translate(-3.8147 0) matrix(1.58728 0 0 1.58728 -233.843 -107.67)">transitbus</text>
  <text fill="#000000" stroke="null" stroke-width="0" stroke-dasharray="null" stroke-linejoin="null" stroke-linecap="null" stroke-opacity="null" x="480.94214" y="1145.25855" id="imagebot_55" font-size="6" font-family="Fantasy" text-anchor="middle" xml:space="preserve" transform="translate(10.9744 12.1077) matrix(2.60228 0 0 2.60228 -602.45 -2111.83)">2015 (c) Created by mitsuruog</text>
  <g id="imagebot_2" transform="translate(10.9744 12.1077) matrix(2.40343 0 0 2.40343 -111.827 64.9936)">
   <path id="imagebot_54" d="M63.949,280.64001L39,267.5L39.288,251.19099L42.348,248.347L42.025,160.039L42.024,160.039C42.024,156.979 42.529,154.099 43.537,151.543C44.436,148.843 45.913,146.431 48.109,144.451C50.161,142.507 49.44,141.895 56.641,139.843C63.949,137.647 75.901,135.019 91.381,131.67101C106.788,128.179 131.55701,122.635 148.332,119.611C164.965,116.551 176.412,115.003 190.992,113.599C205.465,112.159 219.756,111.331 234.839,111.115C249.78,110.863 267.41901,110.827 280.52499,111.835C293.629,112.663 305.36499,114.067 312.81601,116.443C320.052,118.711 320.70099,121.447 324.08401,126.019C327.397,130.55499 330.88901,129.979 332.617,143.731C334.23599,157.66299 333.91199,185.707 334.129,208.27901C334.34399,230.63499 334.20099,253.243 333.84,277.07501L337.47699,282.763L336.866,307.56799L289.95801,309.332C288.302,313.72501 286.32101,317.32401 283.87399,319.98801C281.39001,322.65201 279.013,324.70499 275.341,325.31601C271.56201,325.785 265.19101,325.67499 261.62601,323.19101C257.98901,320.63599 255.397,316.423 253.70599,310.41199L184.873,314.66L156.541,307.56799C153.625,312.53699 150.817,315.48801 147.722,316.423C144.625,317.323 140.701,315.63199 138.289,312.896C135.76801,310.01501 133.933,305.625 132.78101,299.431L78.566,283.79099C77.089,287.35501 75.505,289.44299 73.418,290.19901C71.366,290.883 67.91,289.62299 66.398,288.07401C64.742,286.383 64.058,284.04401 63.95,280.62399L63.949,280.64001z" fill="#000000" fill-rule="evenodd" transform="matrix(0.403712 0 0 0.403712 164.051 157.624)"/>
   <path id="imagebot_52" d="M196.46001,115.36C177.632,118.06 158.659,121.156 138.716,124.792C118.628,128.42799 92.167,133.828 77.659,137.104C63.259,140.23599 58.292,140.668 53.035,143.692C47.671,146.644 45.439,150.31599 45.943,154.85201C67.075,152.08 88.243,149.524 110.419,146.896C132.595,144.23199 154.556,141.748 177.703,139.3C178.89101,133.972 181.123,129.256 184.255,125.296C187.423,121.192 191.347,118.06 196.46001,115.36z" fill="url(#imagebot_53)" fill-rule="evenodd" transform="matrix(0.403712 0 0 0.403712 164.051 157.624)"/>
   <path id="imagebot_50" d="M181.24001,140.56C181.564,138.076 182.679,135.304 184.588,132.388C186.38901,129.22 188.981,125.512 192.508,122.812C196,120.148 198.7,118.24 205.612,116.8C212.48801,115.396 222.424,114.604 233.62,114.28C244.78,113.776 260.58301,114.1 271.995,114.28C283.33499,114.388 293.16299,113.776 300.94,115.36C308.49899,116.872 312.96301,119.176 317.39099,123.532C321.711,127.888 324.80701,133.64799 326.823,141.244C304.28799,141.784 281.53601,142.07201 257.05499,141.964C232.50301,141.856 207.73599,141.388 181.24001,140.56z" fill="url(#imagebot_51)" fill-rule="evenodd" transform="matrix(0.403712 0 0 0.403712 164.051 157.624)"/>
   <path id="imagebot_49" d="M181.85001,145.17L182.13901,225.306L330.16901,224.946L329.271,146.57401L181.851,145.17L181.85001,145.17z" fill="#ffffff" fill-rule="evenodd" transform="matrix(0.403712 0 0 0.403712 164.051 157.624)"/>
   <path id="imagebot_48" d="M204.56,244.09C208.931,244.09 212.48,248.21899 212.48,253.30701S208.931,262.522 204.56,262.522C200.188,262.522 196.64,258.39499 196.64,253.30701S200.188,244.09 204.56,244.09" fill="#ffffff" fill-rule="evenodd" transform="matrix(0.403712 0 0 0.403712 164.051 157.624)"/>
   <path id="imagebot_47" d="M222.56,244.45C226.912,244.45 230.444,248.57899 230.444,253.66499C230.444,258.75299 226.911,262.88199 222.56,262.88199S214.675,258.75299 214.675,253.66499C214.675,248.57899 218.20799,244.45 222.56,244.45" fill="#ffffff" fill-rule="evenodd" transform="matrix(0.403712 0 0 0.403712 164.051 157.624)"/>
   <path id="imagebot_46" d="M304.88,243.10001C308.91299,243.10001 312.189,246.922 312.189,251.633C312.189,256.34201 308.914,260.164 304.88,260.164S297.57101,256.34201 297.57101,251.633C297.57101,246.922 300.84698,243.10001 304.88,243.10001" fill="#ffffff" fill-rule="evenodd" transform="matrix(0.403712 0 0 0.403712 164.051 157.624)"/>
   <path id="imagebot_45" d="M321.07999,243.10001C325.11499,243.10001 328.38901,246.922 328.38901,251.633C328.38901,256.34201 325.116,260.164 321.07999,260.164C317.047,260.164 313.77301,256.34201 313.77301,251.633C313.77301,246.922 317.047,243.10001 321.07999,243.10001" fill="#ffffff" fill-rule="evenodd" transform="matrix(0.403712 0 0 0.403712 164.051 157.624)"/>
   <path id="imagebot_43" d="M181.85001,229.19L182.13901,240.53101L330.16901,240.494L329.271,229.40601L181.851,229.19L181.85001,229.19z" fill="url(#imagebot_44)" fill-rule="evenodd" transform="matrix(0.403712 0 0 0.403712 164.051 157.624)"/>
   <path id="imagebot_41" d="M181.85001,263.97L182.13901,284.52499L330.16901,284.418L329.271,264.32999L181.851,263.97L181.85001,263.97z" fill="url(#imagebot_42)" fill-rule="evenodd" transform="matrix(0.403712 0 0 0.403712 164.051 157.624)"/>
   <path id="imagebot_39" d="M126.7,148.7L126.7,203.312L151.972,205.076L151.972,146.576L126.7,148.7z" fill="#ffffff" fill-rule="evenodd" transform="matrix(0.403712 0 0 0.403712 164.051 157.624)"/>
   <path id="imagebot_35" d="M98.401,152.25999L98.401,201.54401L122.449,202.588L122.449,149.776L98.401,152.25999z" fill="#ffffff" fill-rule="evenodd" transform="matrix(0.403712 0 0 0.403712 164.051 157.624)"/>
   <path id="imagebot_30" d="M71.725,156L72.301,200.172L92.28,200.46001L92.748,153.48L71.725,156z" fill="#ffffff" fill-rule="evenodd" transform="matrix(0.403712 0 0 0.403712 164.051 157.624)"/>
   <path id="imagebot_29" d="M45.661,158.74001L45.661,199.168L65.785,199.42L65.785,157.192L45.661,158.74001z" fill="#ffffff" fill-rule="evenodd" transform="matrix(0.403712 0 0 0.403712 164.051 157.624)"/>
   <path id="imagebot_13" d="M46.596,203.67L152.616,209.358L152.90401,229.914L46.594,219.978L46.594,203.67L46.596,203.67z" fill="url(#imagebot_14)" fill-rule="evenodd" transform="matrix(0.403712 0 0 0.403712 164.051 157.624)"/>
   <path id="imagebot_11" d="M46.596,225.3L46.596,267.85101L61.213,275.664L61.212,275.664C60.276,263.64099 60.276,254.748 61.212,248.701C62.149,242.687 64.524,240.961 66.684,239.48399C68.701,237.72 71.221,236.675 73.416,239.125C75.469,241.645 78.42,247.51199 79.5,254.38901C80.508,261.194 80.508,269.401 79.5,279.55301L132.78,295.862C131.015,285.09601 130.763,276.49301 131.881,269.61801C132.96001,262.66901 136.668,256.909 139.51199,254.714C142.321,252.554 146.28101,254.31799 148.62,256.513C150.81599,258.56601 152.47301,262.05801 153.192,267.134L153.192,236.65401C117.662,232.864 82.13,229.084 46.602,225.304L46.596,225.3z" fill="url(#imagebot_12)" fill-rule="evenodd" transform="matrix(0.403712 0 0 0.403712 164.051 157.624)"/>
   <path id="imagebot_10" d="M157.14999,145.85001L177.274,144.086L177.274,307.56601L157.474,301.55399L157.14999,145.854L157.14999,145.85001z" fill="#ffffff" fill-rule="evenodd" transform="matrix(0.403712 0 0 0.403712 164.051 157.624)"/>
   <path id="imagebot_9" d="M184.08,148.95L245.964,148.95C238.8,150.498 234.12,153.12601 231.636,156.69C229.224,160.254 235.16299,167.922 231.132,170.40601C226.884,172.782 210,167.922 206.58,170.98199C203.23199,173.97 214.32001,183.114 210.68401,188.26199C206.832,193.302 198.157,197.62199 184.08,201.366L184.08,148.95z" fill="#000000" fill-rule="evenodd" transform="matrix(0.403712 0 0 0.403712 164.051 157.624)"/>
   <path id="imagebot_8" d="M252.08,119.18C258.88501,119.792 278.86499,118.1 288.40399,119.792C297.65601,121.448 309.681,128.28799 307.80801,129.332C305.72,130.26801 282.32001,125.408 276.63199,125.732C271.017,125.984 280.952,129.944 274.07501,131.09599C266.91101,132.21201 240.632,133.436 234.692,132.284C228.85899,130.916 239.444,125.624 238.79601,123.356C237.933,120.98 228.5,119.9 230.08299,118.604C231.739,117.2 244.735,115.508 248.517,115.616C252.045,115.652 245.457,118.461 252.08,119.18z" fill="#000000" fill-rule="evenodd" transform="matrix(0.403712 0 0 0.403712 164.051 157.624)"/>
   <path id="imagebot_7" d="M89.977,136.46001C100.128,133.79601 123.241,129.8 137.533,127.532C151.718,125.156 168.85201,121.952 174.36099,122.78C179.545,123.608 174.97301,130.48399 169.24899,132.284C163.382,133.94 146.533,131.276 140.089,132.896C133.718,134.444 137.929,140.384 130.909,141.82401C123.638,143.12 104.557,140.924 97.141,141.21201C89.76,141.5 90.193,143.228 86.916,143.62399C83.496,143.98399 76.692,144.056 77.196,143.01199C77.701,141.823 79.825,138.94299 89.977,136.46001L89.977,136.46001z" fill="#000000" fill-rule="evenodd" transform="matrix(0.403712 0 0 0.403712 164.051 157.624)"/>
   <path id="imagebot_6" d="M370.31,211.91L386.25699,211.91L386.25699,343.45999L370.30701,343.45999L370.30701,211.91L370.31,211.91z" fill="#000000" fill-rule="evenodd" transform="matrix(0.403712 0 0 0.403712 164.051 157.624)"/>
   <path id="imagebot_5" d="M373.12,215.66L383.452,215.66L383.452,338.78L373.12201,338.78L373.12201,215.66L373.12,215.66z" fill="#ffffff" fill-rule="evenodd" transform="matrix(0.403712 0 0 0.403712 164.051 157.624)"/>
   <path id="imagebot_4" d="M378.32001,153.61C396.72198,153.61 411.65601,168.545 411.65601,186.946S396.72198,220.282 378.32001,220.282C359.92001,220.282 344.98401,205.347 344.98401,186.946S359.92001,153.61 378.32001,153.61" fill="#000000" fill-rule="evenodd" transform="matrix(0.403712 0 0 0.403712 164.051 157.624)"/>
   <path id="imagebot_3" d="M378.20001,157.62C394.45599,157.62 407.647,170.813 407.647,187.06799S394.45599,216.51601 378.20001,216.51601S348.75101,203.32401 348.75101,187.06799S361.944,157.62 378.20001,157.62" fill="#ffffff" fill-rule="evenodd" transform="matrix(0.403712 0 0 0.403712 164.051 157.624)"/>
  </g>
 </g>
 <metadata>image/svg+xmlOpenclipartHotel Icon Near Bus Stop2010-04-23T19:42:14Hotel Icons. Originally done for a request, this set has been re-mixed to simple black and white versions.https://openclipart.org/detail/50377/hotel-icon-near-bus-stop-by-gerald_gGerald_Gbushoteliconrequest+completedservicessource+wikistop</metadata>
</svg>